<svg height="559.37213" viewBox="0 0 81.674034 148.00055" width="308.68927" xmlns="http://www.w3.org/2000/svg" xmlns:xlink="http://www.w3.org/1999/xlink"><linearGradient id="a"><stop offset="0" stop-color="#cff09e"/><stop offset="1" stop-color="#0b486b"/></linearGradient><linearGradient id="b"><stop offset="0" stop-color="#a8dba8"/><stop offset="1" stop-color="#3b8686"/></linearGradient><linearGradient id="c" gradientUnits="userSpaceOnUse" x1="93.9617876025" x2="105.03737038459" xlink:href="#b" y1="46.55241164566" y2="48.34622930516"/><linearGradient id="d" gradientUnits="userSpaceOnUse" x1="104.96262694631" x2="120.67224583855" xlink:href="#b" y1="48.34623495498" y2="40.72250990211"/><linearGradient id="e" gradientTransform="matrix(.19975128 .19975128 -.19975128 .19975128 139.3941 43.231273)" gradientUnits="userSpaceOnUse" x1="151.11031" x2="104.39691" xlink:href="#b" y1="151.05209" y2="149.8213"/><linearGradient id="f" gradientTransform="matrix(.19975128 .19975128 -.19975128 .19975128 139.3941 43.231273)" gradientUnits="userSpaceOnUse" x1="86.294235" x2="43.899105" xlink:href="#b" y1="143.18007" y2="139.81277"/><linearGradient id="g" gradientTransform="matrix(.19975128 .19975128 -.19975128 .19975128 139.3941 43.231273)" gradientUnits="userSpaceOnUse" x1="105.29976" x2="146.36528" xlink:href="#b" y1="152.52985" y2="146.27467"/><linearGradient id="h" gradientTransform="matrix(.19975128 .19975128 -.19975128 .19975128 139.3941 43.231273)" gradientUnits="userSpaceOnUse" x1="24.819441" x2="75.81871" xlink:href="#b" y1="140.22455" y2="168.18576"/><linearGradient id="i" gradientUnits="userSpaceOnUse" x1="397.63239" x2="394.95172" xlink:href="#a" y1="787.75653" y2="973.18622"/><linearGradient id="j" gradientUnits="userSpaceOnUse" x1="394.00198" x2="397.74435" xlink:href="#a" y1="820.98865" y2="996.08569"/><linearGradient id="k" gradientTransform="matrix(.19975128 .19975128 -.19975128 .19975128 139.3941 43.231273)" gradientUnits="userSpaceOnUse" x1="156.10222" x2="114.38073" xlink:href="#b" y1="158.26263" y2="134.29091"/><g transform="translate(-64.162984 -17.956027)"><g fill-rule="evenodd"><path d="m105 17.956027c-.81805 1.125317-23.137668 32.177189-8.682528 50.857679 3.306383 4.272862 6.192498 7.503443 8.682528 9.948623z" fill="url(#c)"/><path d="m105 17.956028c.81805 1.125317 23.13767 32.177188 8.68253 50.857678-3.30639 4.272862-6.1925 7.503443-8.68253 9.948623z" fill="url(#d)"/><path d="m105 17.956028c.81805 1.125317 23.13767 32.177188 8.68253 50.857678-3.30639 4.272862-6.1925 7.503443-8.68253 9.948623z" fill="url(#d)"/><path d="m105 17.956027c-.81805 1.125317-23.137668 32.177189-8.682528 50.857679 3.306383 4.272862 6.192498 7.503443 8.682528 9.948623z" fill="url(#c)"/><path d="m396.84961 150.14648c-.41505.57095-1.36843 1.90207-2.56836 3.59375v861.35747c.85443.8459 1.7208 1.7145 2.56836 2.5468.84821-.8329 1.71523-1.7022 2.57031-2.5488v-861.35351c-1.20067-1.69275-2.1551-3.02454-2.57031-3.59571z" fill="#cff09e" transform="matrix(.07474240154 0 0 .07474240154 75.33844752168 6.733719)"/><path d="m104.47083 65.111732h1.058333v79.50132h-1.058333z" fill="#0b486b"/><path d="m70.658962 30.606158c-.10603.10094-2.99909 2.886286-1.12539 4.561911.42858.383272.80263.673017 1.12539.892348.32277-.219331.69689-.509076 1.12547-.892348 1.8737-1.675625-1.01943-4.460971-1.12547-4.561911z" fill="#0b486b" transform="translate(34.341003 30.360937)"/><path d="m70.658962 30.606158c-.10603.10094-2.99909 2.886286-1.12539 4.561911.42858.383272.80263.673017 1.12539.892348.32277-.219331.69689-.509076 1.12547-.892348 1.8737-1.675625-1.01943-4.460971-1.12547-4.561911z" fill="#0b486b" transform="translate(34.341003 30.360937)"/><g transform="matrix(.79225352 0 0 .79225352 21.910147 7.663706)"><path d="m150.67817 70.386087c-.21727 1.374168-6.3919 39.113513-29.82233 42.101283-5.35934.6834-9.68449.92698-13.17421.89526z" fill="url(#e)"/><path d="m150.67817 70.386086c-1.37416.217271-39.11351 6.391907-42.10128 29.822334-.6834 5.35934-.92698 9.68449-.89526 13.17421z" fill="url(#f)"/><path d="m396.84961 150.14648c-.41505.57095-1.36843 1.90207-2.56836 3.59375v861.35747c.85443.8459 1.7208 1.7145 2.56836 2.5468.84821-.8329 1.71523-1.7022 2.57031-2.5488v-861.35351c-1.20067-1.69275-2.1551-3.02454-2.57031-3.59571z" fill="url(#i)" transform="matrix(.05285085883 .05285085883 -.05285085883 .05285085883 137.63965814059 41.47683114059)"/></g></g><g transform="matrix(-1 0 0 1 210.33653 26.096392)"><path d="m70.658962 30.606158c-.10603.10094-2.99909 2.886286-1.12539 4.561911.42858.383272.80263.673017 1.12539.892348.32277-.219331.69689-.509076 1.12547-.892348 1.8737-1.675625-1.01943-4.460971-1.12547-4.561911z" fill="#0b486b" fill-rule="evenodd" transform="translate(25.804125 47.593505)"/><path d="m104.99053 112.16765h-3.24957c-1.937996 0-5.237901-.84538-5.237901-5.67427 0-9.679663.0068-23.774901.0068-23.774901" fill="none" stroke="#0b486b" stroke-width="1.058"/></g><g fill-rule="evenodd" transform="matrix(0 -.79225352 .79225352 0 12.99604 194.86982)"><path d="m150.67817 70.386087c-.21727 1.374168-6.3919 39.113513-29.82233 42.101283-5.35934.6834-9.68449.92698-13.17421.89526z" fill="url(#g)"/><path d="m150.67817 70.386086c-1.37416.217271-39.11351 6.391907-42.10128 29.822334-.6834 5.35934-.92698 9.68449-.89526 13.17421z" fill="url(#h)"/><path d="m396.84961 150.14648c-.41505.57095-1.36843 1.90207-2.56836 3.59375v861.35747c.85443.8459 1.7208 1.7145 2.56836 2.5468.84821-.8329 1.71523-1.7022 2.57031-2.5488v-861.35351c-1.20067-1.69275-2.1551-3.02454-2.57031-3.59571z" fill="url(#j)" transform="matrix(.05285085883 .05285085883 -.05285085883 .05285085883 137.63965814059 41.47683114059)"/></g><g transform="translate(.28063 .465244)"><path d="m70.658962 30.606158c-.10603.10094-2.99909 2.886286-1.12539 4.561911.42858.383272.80263.673017 1.12539.892348.32277-.219331.69689-.509076 1.12547-.892348 1.8737-1.675625-1.01943-4.460971-1.12547-4.561911z" fill="#0b486b" fill-rule="evenodd" transform="translate(20.905374 46.179763)"/><path d="m104.81204 124.7251h-5.072416c-3.025137 0-8.176127-1.23467-8.176127-8.2873 0-14.13718.01059-34.72333.01059-34.72333" fill="none" stroke="#0b486b" stroke-width="1.058"/></g><g fill="#0b486b" stroke-width=".264583"><path d="m95.207508 154.01857v11.85333h-1.236133v-5.46946h-7.416799v5.46946h-1.253067v-11.85333h1.253067v5.2832h7.416799v-5.2832z"/><path d="m106.56131 161.79097h-7.450669q.1016 1.38853 1.066799 2.25213.9652.84667 2.4384.84667.82973 0 1.524-.28787.69427-.3048 1.20227-.88053l.67733.77893q-.59267.7112-1.49013 1.08374-.88054.37253-1.94734.37253-1.3716 0-2.4384-.57573-1.049862-.59267-1.642529-1.6256-.592666-1.03294-.592666-2.3368 0-1.30387.5588-2.3368.575733-1.03294 1.557865-1.60867.99907-.57573 2.2352-.57573 1.23613 0 2.21827.57573.98213.57573 1.54093 1.60867.5588 1.016.5588 2.3368zm-4.30107-3.8608q-1.28693 0-2.16747.82973-.863596.8128-.982129 2.1336h6.316129q-.11853-1.3208-.99906-2.1336-.8636-.82973-2.16747-.82973z"/><path d="m110.17684 158.7091q.42333-.89746 1.25307-1.35466.84666-.4572 2.0828-.4572v1.1684l-.28787-.0169q-1.40547 0-2.20133.8636-.79587.8636-.79587 2.42147v4.53813h-1.20227v-8.90693h1.15147z"/><path d="m120.26196 156.89724q1.25307 0 2.26907.57573 1.016.5588 1.59173 1.59173.57573 1.03294.57573 2.35374 0 1.3208-.57573 2.35373-.57573 1.03293-1.59173 1.60867-1.016.57573-2.26907.57573-1.1176 0-2.01507-.47413-.88053-.47414-1.4224-1.3716v1.76106h-1.15146v-12.56453h1.20226v5.35093q.5588-.8636 1.4224-1.30386.88054-.4572 1.96427-.4572zm-.0847 7.99253q.93134 0 1.69334-.42333.762-.44027 1.18533-1.23614.44027-.79586.44027-1.81186 0-1.016-.44027-1.81187-.42333-.79587-1.18533-1.2192-.762-.44027-1.69334-.44027-.94826 0-1.71026.44027-.74507.42333-1.18534 1.2192-.42333.79587-.42333 1.81187 0 1.016.42333 1.81186.44027.79587 1.18534 1.23614.762.42333 1.71026.42333z"/></g><path d="m107.187658 148.52861h25.158804v1.058h-25.158804z" fill="#0b486b" fill-rule="evenodd"/><path d="m77.653535 148.52861h2.007762v1.058h-2.007762z" fill="#0b486b" fill-rule="evenodd"/><path d="m80.651833 148.52861h25.158804v1.058h-25.158804z" fill="#0b486b" fill-rule="evenodd"/><g fill-rule="evenodd" transform="matrix(.29850984 0 0 .29850984 82.742602 87.785372)"><path d="m150.67817 70.386087c-.21727 1.374168-6.3919 39.113513-29.82233 42.101283-5.35934.6834-9.68449.92698-13.17421.89526z" fill="url(#k)"/><path d="m150.67817 70.386086c-1.37416.217271-39.11351 6.391907-42.10128 29.822334-.6834 5.35934-.92698 9.68449-.89526 13.17421z" fill="url(#f)"/><path d="m396.84961 150.14648c-.41505.57095-1.36843 1.90207-2.56836 3.59375v861.35747c.85443.8459 1.7208 1.7145 2.56836 2.5468.84821-.8329 1.71523-1.7022 2.57031-2.5488v-861.35351c-1.20067-1.69275-2.1551-3.02454-2.57031-3.59571z" fill="url(#i)" transform="matrix(.05285085883 .05285085883 -.05285085883 .05285085883 137.63965814059 41.47683114059)"/></g><g fill-rule="evenodd" transform="matrix(.79225352 0 0 .79225352 21.910147 7.663706)"><path d="m150.67817 70.386087c-.21727 1.374168-6.3919 39.113513-29.82233 42.101283-5.35934.6834-9.68449.92698-13.17421.89526z" fill="url(#e)"/><path d="m150.67817 70.386086c-1.37416.217271-39.11351 6.391907-42.10128 29.822334-.6834 5.35934-.92698 9.68449-.89526 13.17421z" fill="url(#f)"/><path d="m396.84961 150.14648c-.41505.57095-1.36843 1.90207-2.56836 3.59375v861.35747c.85443.8459 1.7208 1.7145 2.56836 2.5468.84821-.8329 1.71523-1.7022 2.57031-2.5488v-861.35351c-1.20067-1.69275-2.1551-3.02454-2.57031-3.59571z" fill="url(#i)" transform="matrix(.05285085883 .05285085883 -.05285085883 .05285085883 137.63965814059 41.47683114059)"/></g><g fill="#0b486b" fill-rule="evenodd" transform="translate(-1.50174)"><path d="m511.15234 537.9043c-4.59804 0-8.47095 3.27377-9.39843 7.60547h-179.00391v3.99804h181.34375v-.002h1.81445c-.23357-.62041-.36718-1.29116-.36718-1.99805 0-3.12189 2.48943-5.61133 5.61132-5.61133s5.60938 2.48944 5.60938 5.61133c0 .70689-.13324 1.37764-.36719 1.99805h1.32422v.002h27.80078v-3.99804h-24.97656c-.92595-4.3317-4.79262-7.60547-9.39063-7.60547zm-262.9707 7.60547v3.99804h67.81836v-3.99804z" transform="scale(.26458333)"/><path d="m145.33099 144.31912h2.007762v1.058h-2.007762z"/></g></g></svg>